<?xml version="1.0" encoding="utf-8"?>
<!-- Generator: Adobe Illustrator 17.0.0, SVG Export Plug-In . SVG Version: 6.00 Build 0)  -->
<!DOCTYPE svg PUBLIC "-//W3C//DTD SVG 1.1//EN" "http://www.w3.org/Graphics/SVG/1.1/DTD/svg11.dtd">
<svg version="1.1" id="Layer_1" xmlns="http://www.w3.org/2000/svg" xmlns:xlink="http://www.w3.org/1999/xlink" x="0px" y="0px"
	 width="554.052px" height="110.3px" viewBox="0 0 554.052 110.3" enable-background="new 0 0 554.052 110.3" xml:space="preserve">
<g>
	<g>
		<rect x="15.198" y="96.685" fill="#0083CA" width="2.241" height="7.487"/>
		<polygon fill="#0083CA" points="18.63,104.172 18.63,96.685 20.49,96.685 23.052,100.702 23.076,96.685 24.868,96.685 
			24.868,104.172 23.076,104.172 20.444,99.983 20.417,104.172 		"/>
		<path fill="#0083CA" d="M25.29,102.425l1.863-0.63c0.183,0.355,0.368,0.615,0.561,0.77c0.247,0.204,0.566,0.304,0.955,0.304
			c0.263,0,0.485-0.061,0.658-0.179c0.175-0.121,0.263-0.269,0.263-0.454c0-0.4-0.34-0.722-1.02-0.968
			c-1.127-0.41-1.758-0.654-1.889-0.738c-0.677-0.419-1.017-1.046-1.017-1.871c0-0.56,0.287-1.055,0.864-1.482
			c0.579-0.427,1.242-0.641,1.994-0.641c0.721,0,1.352,0.156,1.889,0.462c0.54,0.308,0.909,0.701,1.117,1.178l-1.79,0.631
			c-0.132-0.253-0.282-0.446-0.448-0.58c-0.204-0.161-0.462-0.241-0.77-0.241c-0.207,0-0.386,0.053-0.542,0.161
			c-0.151,0.104-0.23,0.258-0.23,0.473c0,0.271,0.344,0.528,1.031,0.762c1.028,0.368,1.672,0.62,1.926,0.772
			c0.697,0.414,1.046,0.95,1.046,1.62c0,0.749-0.316,1.36-0.94,1.833c-0.626,0.477-1.392,0.713-2.292,0.713
			c-0.752,0-1.419-0.161-1.989-0.491C25.96,103.503,25.547,103.034,25.29,102.425"/>
		<path fill="#0083CA" d="M38.588,96.685v5.111c0,0.842-0.26,1.473-0.783,1.891c-0.52,0.424-1.282,0.633-2.273,0.633
			c-0.988,0-1.722-0.215-2.206-0.647c-0.485-0.432-0.73-1.057-0.73-1.878v-5.111h2.238v5.193c0,0.327,0.065,0.571,0.198,0.738
			c0.167,0.21,0.422,0.317,0.772,0.317c0.348,0,0.598-0.121,0.744-0.357c0.113-0.193,0.175-0.457,0.175-0.799v-5.09L38.588,96.685
			C38.588,96.684,38.588,96.685,38.588,96.685z"/>
		<path fill="#0083CA" d="M39.806,104.172v-7.487h3.328c0.896,0,1.604,0.167,2.125,0.502c0.572,0.371,0.856,0.913,0.856,1.62
			c0,0.392-0.132,0.744-0.403,1.052c-0.269,0.308-0.631,0.532-1.086,0.671l1.487,3.641h-2.213l-1.121-3.241h-0.744v3.241
			C42.039,104.172,39.806,104.172,39.806,104.172z M42.042,98.074v1.658h0.448c0.437,0,0.781-0.064,1.025-0.201
			c0.244-0.131,0.367-0.34,0.367-0.62c0-0.351-0.148-0.59-0.448-0.713c-0.201-0.086-0.539-0.126-1.02-0.126L42.042,98.074
			L42.042,98.074z"/>
		<path fill="#0083CA" d="M46.591,104.172l2.091-7.487h2.93l1.891,7.487H51.24l-0.347-1.516h-2.039l-0.399,1.516H46.591z
			 M49.151,101.333h1.441l-0.647-3.051L49.151,101.333z"/>
		<polygon fill="#0083CA" points="54.222,104.172 54.222,96.685 56.086,96.685 58.646,100.702 58.671,96.685 60.461,96.685 
			60.461,104.172 58.671,104.172 56.036,99.983 56.011,104.172 		"/>
		<path fill="#0083CA" d="M67.642,99.293h-2.088c0-0.341-0.057-0.634-0.175-0.87c-0.161-0.33-0.421-0.497-0.77-0.497
			c-0.43,0-0.727,0.241-0.893,0.724c-0.132,0.387-0.201,0.98-0.201,1.779c0,0.896,0.061,1.508,0.175,1.83
			c0.159,0.448,0.48,0.674,0.969,0.674c0.389,0,0.666-0.134,0.834-0.4c0.142-0.233,0.212-0.603,0.212-1.116l1.938,0.147
			c0,0.835-0.273,1.503-0.821,2.004c-0.544,0.501-1.299,0.752-2.26,0.752c-1.243,0-2.158-0.406-2.743-1.219
			c-0.473-0.658-0.708-1.551-0.708-2.672c0-1.081,0.23-1.954,0.697-2.621c0.595-0.85,1.513-1.272,2.755-1.272
			c1.02,0,1.798,0.265,2.335,0.799C67.394,97.827,67.642,98.48,67.642,99.293"/>
		<polygon fill="#0083CA" points="68.487,104.172 68.487,96.685 74.055,96.685 74.055,98.134 70.729,98.134 70.729,99.65 
			72.963,99.65 72.963,101.101 70.729,101.101 70.729,102.657 74.055,102.657 74.055,104.172 		"/>
		<rect x="15.144" y="10.291" fill="#0083CA" width="58.886" height="83.428"/>
		<path fill="#FFFFFF" d="M20.473,63.365v1.883h0.352c0.201,0,0.333-0.075,0.406-0.198c0.072-0.151,0.11-0.403,0.11-0.762
			c0-0.416-0.064-0.687-0.185-0.8c-0.072-0.086-0.241-0.12-0.523-0.12L20.473,63.365L20.473,63.365z M19.077,69.621v-7.61h1.497
			c0.802,0,1.353,0.139,1.65,0.418c0.341,0.316,0.513,0.947,0.513,1.903c0,0.258-0.01,0.43-0.018,0.529
			c0,0.102-0.027,0.244-0.054,0.434c-0.03,0.201-0.1,0.4-0.198,0.588c-0.234,0.486-0.642,0.721-1.211,0.721h-0.783v3.022
			L19.077,69.621L19.077,69.621z M23.296,69.621v-7.61h3.092v1.473h-1.706v1.503h1.503v1.468h-1.503v1.694h1.779v1.47L23.296,69.621
			C23.296,69.618,23.296,69.621,23.296,69.621z M26.86,63.483V62.01h3.198v1.473h-0.899v6.137h-1.408v-6.137H26.86z M30.447,69.621
			v-7.61h1.851c0.62,0,1.071,0.139,1.349,0.418c0.274,0.266,0.416,0.738,0.416,1.422c0,0.486-0.043,0.85-0.134,1.101
			c-0.12,0.316-0.362,0.52-0.713,0.657c0.258,0.054,0.451,0.196,0.595,0.434c0.148,0.215,0.226,0.477,0.226,0.794v1.352v0.544v0.204
			c0,0.069,0,0.145,0.006,0.218c0,0.19,0.049,0.34,0.135,0.469H32.8c-0.046-0.064-0.089-0.218-0.124-0.446
			c-0.019-0.207-0.029-0.389-0.029-0.575c-0.006-0.183-0.006-0.316-0.006-0.413v-1.224c0-0.21-0.038-0.373-0.116-0.485
			c-0.091-0.094-0.215-0.142-0.414-0.142h-0.263v3.284h-1.401C30.447,69.617,30.447,69.621,30.447,69.621z M31.845,63.301v1.738
			h0.344c0.198,0,0.34-0.086,0.413-0.258l0.054-0.225l0.008-0.416c0-0.296-0.019-0.496-0.064-0.612
			c-0.072-0.145-0.233-0.225-0.486-0.225C32.116,63.301,31.845,63.301,31.845,63.301z M36.068,63.934v3.767
			c0,0.222,0.024,0.4,0.086,0.534c0.064,0.097,0.164,0.151,0.304,0.151c0.174,0,0.29-0.083,0.351-0.263
			c0.037-0.137,0.054-0.281,0.054-0.422v-3.767c0-0.182-0.018-0.336-0.043-0.434c-0.065-0.175-0.18-0.265-0.362-0.265
			c-0.161,0-0.277,0.089-0.34,0.258C36.082,63.623,36.068,63.768,36.068,63.934 M34.666,67.548v-3.462
			c0-0.711,0.174-1.272,0.504-1.658c0.33-0.362,0.749-0.544,1.29-0.544c0.54,0,0.974,0.19,1.307,0.571
			c0.327,0.371,0.496,0.92,0.496,1.632v3.462c0,0.666-0.161,1.197-0.486,1.605c-0.325,0.397-0.759,0.595-1.317,0.595
			c-0.545,0-0.971-0.198-1.307-0.595C34.832,68.765,34.666,68.223,34.666,67.548"/>
		<polygon fill="#FFFFFF" points="41.294,69.747 37.824,61.882 39.998,61.882 42.222,67.414 44.602,61.882 46.607,61.882 
			42.909,69.747 		"/>
		<path fill="#FFFFFF" d="M46.858,61.882h1.39v7.865h-1.39V61.882z M48.914,69.747v-7.865h3.092v1.516h-1.706v1.562h1.489v1.518
			h-1.489v1.753h1.779v1.516C52.078,69.747,48.914,69.747,48.914,69.747z M52.466,63.398v-1.516h3.191v1.516h-0.899v6.349h-1.388
			v-6.349H52.466z M56.055,69.747v-7.865h1.513l1.121,4.634l0.019-4.634h1.341v7.865h-1.519l-1.121-4.86l-0.014,4.86H56.055z
			 M60.409,69.747l1.117-7.865h1.848l1.13,7.865H63.05l-0.132-1.401h-0.974l-0.147,1.401H60.409z M62.087,66.951h0.692l-0.312-3.85
			L62.087,66.951z M64.901,69.747v-7.865h2.195l0.399,3.893l0.406-3.893h2.197v7.865h-1.352v-6.113l-0.786,6.113h-0.915
			l-0.781-6.113l-0.021,6.113H64.901z"/>
		<path fill="#EF4123" d="M56.219,17.08c-8.584,1.983-12.462,7.186-13.211,14.86c-0.137,2.933,0.1,6.016,0.815,9.18
			c0.387,1.694,0.891,3.416,1.39,5.166c0.56,1.919,0.893,3.596,0.885,5.633c-0.013,2.852-0.595,5.251-1.741,7.202
			c-0.222,0.381-1.055,1.742-1.742,2.302c-0.824,0.685-0.859-0.279-1.098-0.992c-0.408-1.21-0.515-2.417-0.483-3.634
			c0.41-3.596,1.023-7.414,1.643-11.244c0.198-6.655-3.442-10.929-10.261-13.208c0.772,0.882,1.396,2.06,1.761,3.74
			c0.69,2.807-0.265,5.079-0.942,7.621c-0.34,1.462-0.628,2.678-0.513,4.192c0.198,2.625,1.242,5.369,2.654,8.083
			c0.966,1.304,1.677,2.705,2.637,3.893c1.613,2.039,3.077,4.47,4.204,7.602c0.867-1.796,1.535-3.826,2.761-5.745
			c2.565-2.804,5.149-5.535,7.718-8.699c2.458-3.646,3.794-7.578,3.585-11.892c-0.1-1.916-0.534-3.545-1.135-5.35
			c-0.655-1.965-1.317-3.933-1.981-5.906c-0.601-1.796-1.103-3.202-1.003-5.131C52.311,21.636,53.682,19.127,56.219,17.08"/>
		<rect x="16.569" y="74.088" fill="#FDB913" width="56.029" height="18.174"/>
		<path fill="#ED1D24" d="M33.165,77.019c-4.731,0-8.413,0.029-8.413,0.029v12.531h3.725v-4.398l4.706-0.046
			c0,0,4.301,0.054,4.918-3.571C38.183,80.891,38.377,77.351,33.165,77.019 M32.205,82.79H28.59v-3.394h3.725
			c2.061,0,2.005,1.224,2.061,1.669C34.266,82.901,32.205,82.79,32.205,82.79"/>
		<polygon fill="#ED1D24" points="40.607,77.037 44.836,77.037 48.761,86.037 52.678,77.005 56.798,77.005 50.714,89.579 
			46.78,89.579 		"/>
		<rect x="60.917" y="77.002" fill="#ED1D24" width="3.507" height="12.579"/>
	</g>
</g>
<path fill="#FFFFFF" d="M319.631,93.005c-1.028-6.002-6.575-10.073-12.575-9.218c-6.395,0.91-10.683,7.071-9.32,13.395
	c1.087,5.052,5.536,8.719,10.664,8.794c5.26,0.077,9.805-3.413,11.056-8.471c0.113-0.456,0.108-0.939,0.325-1.369
	c0-0.87,0-1.742,0-2.613C319.615,93.384,319.66,93.179,319.631,93.005z M314.073,93.669c-1.382,3.002-3.582,5.198-6.575,6.591
	c-0.647,0.301-1.337,0.472-1.975,0.493c-0.585,0.005-1.076-0.104-1.487-0.387c-0.137-0.094-0.265-0.206-0.384-0.341
	c-0.201-0.228-0.432-0.429-0.644-0.649c-0.383-0.395-0.422-0.837-0.048-1.235c0.617-0.654,1.251-1.291,1.906-1.906
	c0.395-0.373,0.838-0.33,1.237,0.057c0.322,0.312,0.644,0.628,0.95,0.955c0.215,0.231,0.427,0.261,0.685,0.077
	c1.32-0.947,2.448-2.082,3.395-3.402c0.174-0.244,0.15-0.445-0.067-0.65c-0.316-0.298-0.618-0.612-0.925-0.921
	c-0.472-0.48-0.481-0.91-0.013-1.398c0.352-0.365,0.716-0.721,1.074-1.079c1.323-1.323,1.314-1.31,2.635-0.018
	c0.502,0.493,0.719,1.071,0.714,1.753C314.548,92.334,314.371,93.024,314.073,93.669z"/>
<g>
	<path fill="#FFFFFF" d="M89.32,31.041h15.145c6.902,0,11.911,0.982,15.029,2.946s4.677,5.088,4.677,9.37
		c0,2.908-0.682,5.292-2.047,7.156c-1.365,1.863-3.179,2.986-5.442,3.362v0.335c3.084,0.689,5.31,1.975,6.674,3.861
		c1.365,1.886,2.047,4.395,2.047,7.524c0,4.438-1.604,7.9-4.809,10.385c-3.207,2.485-7.561,3.728-13.065,3.728H89.32V31.041z
		 M99.638,50.314h5.992c2.796,0,4.822-0.432,6.075-1.298c1.253-0.866,1.881-2.297,1.881-4.294c0-1.863-0.682-3.201-2.047-4.012
		c-1.365-0.81-3.523-1.215-6.475-1.215h-5.426L99.638,50.314L99.638,50.314z M99.638,58.504v12.682h6.724
		c2.841,0,4.937-0.544,6.292-1.631c1.353-1.087,2.031-2.751,2.031-4.993c0-4.039-2.885-6.057-8.654-6.057h-6.392V58.504z"/>
	<path fill="#FFFFFF" d="M164.913,79.707l-3.529-11.584h-17.742l-3.529,11.584h-11.118l17.177-48.864h12.615l17.243,48.866h-11.117
		V79.707z M161.052,18.959c0,3.462-1.796,5.648-5.393,6.558l-0.333,2.364h-5.791l-0.765-4.894c1.664-0.266,2.796-0.682,3.395-1.248
		c0.599-0.566,0.899-1.259,0.899-2.08c0-0.711-0.233-1.253-0.698-1.631c-0.465-0.378-1.076-0.566-1.832-0.566
		c-1.443,0-2.986,0.255-4.628,0.765v-5.592c0.666-0.222,1.581-0.405,2.747-0.55c1.165-0.143,2.203-0.217,3.112-0.217
		c3.107,0,5.431,0.617,6.974,1.848C160.281,14.947,161.052,16.694,161.052,18.959z M158.921,59.469
		c-3.261-10.497-5.098-16.433-5.509-17.809c-0.41-1.376-0.705-2.463-0.882-3.261c-0.733,2.841-2.829,9.864-6.292,21.07H158.921z"/>
	<path fill="#FFFFFF" d="M226.327,55.308c0,8.056-1.997,14.248-5.992,18.574c-3.995,4.326-9.721,6.491-17.176,6.491
		c-7.457,0-13.181-2.163-17.176-6.491c-3.995-4.328-5.992-10.541-5.992-18.641s2.004-14.286,6.008-18.558
		c4.006-4.272,9.748-6.408,17.225-6.408c7.479,0,13.199,2.152,17.16,6.457S226.327,47.23,226.327,55.308z M190.812,55.308
		c0,5.436,1.031,9.531,3.096,12.284c2.063,2.751,5.147,4.129,9.253,4.129c8.232,0,12.349-5.471,12.349-16.411
		c0-10.962-4.094-16.444-12.284-16.444c-4.106,0-7.2,1.382-9.287,4.143C191.854,45.771,190.812,49.871,190.812,55.308z"/>
	<path fill="#FFFFFF" d="M293.999,79.707h-10.285V58.704h-19.274v21.003h-10.318V31.041h10.318v19.074h19.274V31.041h10.285V79.707z
		"/>
	<path fill="#FFFFFF" d="M306.283,79.707V31.041h10.318v48.665L306.283,79.707L306.283,79.707z"/>
	<path fill="#FFFFFF" d="M356.88,79.707h-28.028V31.041h28.028v8.455h-17.708v10.687h16.478v8.455h-16.478v12.55h17.708V79.707
		L356.88,79.707z M355.314,27.146h-5.393c-2.485-1.664-4.827-3.507-7.023-5.525c-2.53,2.241-4.871,4.084-7.023,5.525h-5.393v-0.899
		c2.485-2.885,4.871-5.992,7.156-9.32h10.486c1.176,1.731,2.514,3.545,4.012,5.442s2.557,3.19,3.179,3.878V27.146L355.314,27.146z
		 M361.973,14.131c0,2.53-1.387,4.071-4.16,4.628l-0.199,2.031h-4.227l-0.333-3.861c1.221-0.045,2.197-0.239,2.93-0.582
		c0.733-0.344,1.098-0.837,1.098-1.481c0-0.465-0.206-0.866-0.617-1.199c-0.41-0.333-1.094-0.499-2.048-0.499
		c-0.776,0-1.577,0.112-2.396,0.333V9.274c0.488-0.134,1.51-0.199,3.062-0.199c2.085,0,3.756,0.4,5.01,1.199
		C361.346,11.069,361.973,12.357,361.973,14.131z"/>
	<path fill="#FFFFFF" d="M387.637,79.707l-11.716-38.181h-0.3c0.422,7.768,0.633,12.948,0.633,15.545v22.636h-9.222V31.041h14.047
		l11.517,37.215h0.199l12.217-37.215h14.047v48.665h-9.62V56.671c0-1.087,0.018-2.342,0.049-3.76
		c0.033-1.42,0.183-5.192,0.45-11.318h-0.3l-12.55,38.114H387.637z"/>
	<path fill="#FFFFFF" d="M482.638,46.221c0,5.236-1.637,9.242-4.91,12.016c-3.273,2.774-7.927,4.16-13.964,4.16h-4.427v17.31h-10.32
		V31.041h15.545c5.903,0,10.392,1.27,13.465,3.811C481.102,37.394,482.638,41.184,482.638,46.221z M459.337,53.942h3.395
		c3.174,0,5.547-0.626,7.124-1.881c1.577-1.253,2.364-3.08,2.364-5.476c0-2.418-0.66-4.205-1.981-5.359
		c-1.32-1.154-3.391-1.731-6.209-1.731h-4.693V53.942L459.337,53.942z"/>
	<path fill="#FFFFFF" d="M519.586,31.041h10.419l-16.543,48.665h-11.251l-16.51-48.665h10.419L505.275,60
		c0.51,1.709,1.038,3.701,1.581,5.975c0.544,2.275,0.883,3.856,1.015,4.742c0.244-2.042,1.076-5.614,2.496-10.718L519.586,31.041z"
		/>
	<path fill="#FFFFFF" d="M536.129,79.707V31.041h10.32v48.665L536.129,79.707L536.129,79.707z"/>
</g>
<g>
	<path fill="#FFFFFF" d="M343.805,101.496c-2.435-0.022-4.872-0.005-7.481-0.005c0.286-0.374,0.455-0.604,0.629-0.827
		c2.259-2.866,4.522-5.729,6.776-8.599c0.656-0.837,1.314-1.679,1.728-2.67c0.475-1.138-0.039-2.212-1.206-2.616
		c-0.529-0.181-1.074-0.196-1.618-0.198c-3.076-0.01-6.15-0.01-9.226,0.002c-0.426,0.002-0.869,0.042-1.277,0.157
		c-0.864,0.245-1.375,0.947-1.368,1.774c0.007,0.827,0.533,1.522,1.4,1.75c0.411,0.108,0.849,0.142,1.277,0.144
		c1.867,0.015,3.737,0.002,5.604,0.012c0.201,0,0.46-0.13,0.622,0.164c-0.154,0.201-0.306,0.406-0.465,0.607
		c-2.665,3.387-5.332,6.774-7.997,10.161c-0.663,0.842-0.996,1.769-0.516,2.804c0.48,1.033,1.456,1.231,2.457,1.287
		c0.803,0.046,1.608,0.017,2.413,0.017c2.787,0,5.577,0.02,8.364-0.012c1.478-0.017,2.273-0.923,2.114-2.286
		C345.912,102.091,345.173,101.508,343.805,101.496z"/>
	<path fill="#FFFFFF" d="M375.192,90.949c-4.133,0.127-7.038,3.436-6.906,7.865c-0.064,4.307,3.507,7.572,7.985,7.121
		c4.123-0.414,6.798-3.504,6.666-7.865C382.805,93.765,379.582,90.814,375.192,90.949z M377.828,100.85
		c-1.113,1.446-3.38,1.434-4.471-0.032c-0.531-0.715-0.739-1.539-0.734-2.42c0.007-2.144,1.307-3.568,3.169-3.47
		c0.849,0.044,1.537,0.399,2.053,1.087C378.833,97.331,378.831,99.546,377.828,100.85z"/>
	<path fill="#FFFFFF" d="M364.571,85.058c-1.268,0.012-2.112,0.874-2.136,2.2c-0.015,0.805-0.002,1.608-0.002,2.413
		c0,4.569-0.005,9.138,0.002,13.704c0.002,1.077,0.653,1.999,1.525,2.22c1.451,0.367,2.8-0.668,2.809-2.195
		c0.02-2.672,0.005-5.345,0.005-8.017c0-2.702,0.012-5.401-0.005-8.103C366.762,85.91,365.883,85.046,364.571,85.058z"/>
	<path fill="#FFFFFF" d="M357.878,91.24c-0.71,0.144-1.128,0.644-1.547,1.172c-2.154-1.879-4.53-1.994-6.869-0.619
		c-2.819,1.657-3.867,4.358-3.509,7.508c0.333,2.932,1.598,5.325,4.669,6.321c1.914,0.622,3.685,0.399,5.257-0.876
		c0.406-0.328,0.531-0.267,0.82,0.1c0.595,0.749,1.52,0.969,2.41,0.668c0.849-0.289,1.429-1.011,1.434-1.953
		c0.02-3.448,0.037-6.896-0.007-10.344C360.519,91.844,359.234,90.963,357.878,91.24z M355.483,100.799
		c-1.116,1.505-3.406,1.51-4.522,0.002c-0.514-0.693-0.71-1.49-0.724-2.083c-0.02-2.437,1.304-3.901,3.196-3.788
		c0.852,0.049,1.534,0.411,2.046,1.099C356.444,97.331,356.449,99.494,355.483,100.799z"/>
</g>
<g>
	<g>
		<path fill="#FFFFFF" d="M102.664,105.749h-3.506v-7.161h-6.572v7.161h-3.518V89.157h3.518v6.504h6.572v-6.504h3.506V105.749z"/>
		<path fill="#FFFFFF" d="M121.912,97.431c0,2.748-0.681,4.858-2.042,6.333c-1.362,1.476-3.314,2.214-5.856,2.214
			c-2.542,0-4.494-0.738-5.856-2.214c-1.362-1.474-2.043-3.593-2.043-6.354s0.683-4.871,2.049-6.328
			c1.366-1.456,3.324-2.184,5.873-2.184s4.5,0.733,5.85,2.201C121.237,92.566,121.912,94.677,121.912,97.431z M109.803,97.431
			c0,1.854,0.352,3.25,1.055,4.188c0.704,0.939,1.755,1.409,3.155,1.409c2.807,0,4.21-1.866,4.21-5.596
			c0-3.738-1.396-5.606-4.188-5.606c-1.4,0-2.456,0.47-3.166,1.412C110.158,94.179,109.803,95.577,109.803,97.431z"/>
		<path fill="#FFFFFF" d="M131.752,105.749h-3.518V92.085h-4.506v-2.928h12.53v2.928h-4.506V105.749z"/>
		<path fill="#FFFFFF" d="M138.811,105.749V89.157h3.518v13.688h6.73v2.905H138.811z"/>
		<path fill="#FFFFFF" d="M151.942,105.749V89.157h3.518v16.593H151.942z"/>
		<path fill="#FFFFFF" d="M174.357,105.749h-4.472l-7.218-12.552h-0.102c0.143,2.217,0.216,3.798,0.216,4.743v7.808h-3.144V89.157
			h4.437l7.207,12.429h0.079c-0.113-2.158-0.17-3.682-0.17-4.575v-7.854h3.166V105.749z"/>
		<path fill="#FFFFFF" d="M188.089,105.749h-9.556V89.157h9.556v2.883h-6.038v3.643h5.618v2.883h-5.618v4.279h6.038V105.749z"/>
		<path fill="#FFFFFF" d="M203.99,105.749h-3.518V92.085h-4.506v-2.928h12.53v2.928h-4.506V105.749z"/>
		<path fill="#FFFFFF" d="M224.555,89.157v2.134c0.56-0.196,0.972-0.579,1.237-1.146c0.265-0.568,0.397-1.253,0.397-2.055h3.416
			l0.159,0.249c-0.242,1.166-0.565,2.064-0.97,2.696c-0.405,0.632-0.952,1.143-1.64,1.532c-0.689,0.391-1.555,0.66-2.599,0.811
			v6.515c0,1.227-0.275,2.301-0.823,3.224c-0.548,0.923-1.341,1.63-2.377,2.122c-1.037,0.492-2.263,0.738-3.678,0.738
			c-2.133,0-3.791-0.546-4.971-1.639c-1.181-1.094-1.771-2.59-1.771-4.489V89.157h3.507v10.43c0,1.182,0.266,2.049,0.8,2.606
			c0.533,0.556,1.375,0.834,2.525,0.834c1.15,0,1.984-0.29,2.502-0.869c0.518-0.579,0.778-1.443,0.778-2.593V89.157H224.555z"/>
		<path fill="#FFFFFF" d="M247.117,89.157h3.552l-5.641,16.593h-3.836l-5.629-16.593h3.552l3.121,9.874
			c0.174,0.584,0.353,1.262,0.539,2.038c0.185,0.775,0.301,1.314,0.346,1.617c0.083-0.696,0.367-1.915,0.852-3.655L247.117,89.157z"
			/>
		<path fill="#FFFFFF" d="M262.915,105.749l-1.203-3.949h-6.049l-1.203,3.949h-3.791l5.856-16.66h4.301l5.879,16.66H262.915z
			 M262.926,87.829h-1.838c-0.848-0.567-1.646-1.196-2.395-1.884c-0.862,0.764-1.661,1.392-2.395,1.884h-1.838v-0.305
			c0.848-0.984,1.661-2.044,2.44-3.179h3.575c0.401,0.59,0.857,1.21,1.368,1.856c0.511,0.648,0.872,1.088,1.084,1.323V87.829z
			 M260.872,98.85c-1.112-3.579-1.739-5.603-1.879-6.073c-0.14-0.469-0.24-0.839-0.3-1.111c-0.25,0.968-0.964,3.362-2.145,7.184
			H260.872z M261.916,85.321c0.643-0.688,1.165-1.449,1.566-2.281h2.735v0.238c-0.507,0.672-1.365,1.452-2.576,2.338h-1.725V85.321z
			"/>
		<path fill="#FFFFFF" d="M283.514,105.749h-4.472l-7.218-12.552h-0.102c0.143,2.217,0.216,3.798,0.216,4.743v7.808h-3.144V89.157
			h4.437l7.207,12.429h0.079c-0.113-2.158-0.17-3.682-0.17-4.575v-7.854h3.166V105.749z"/>
	</g>
</g>
<g>
	<g>
		<path fill="#FFFFFF" d="M405.487,97.454c0,2.897-0.476,5.042-1.424,6.434c-0.95,1.393-2.413,2.089-4.387,2.089
			c-1.915,0-3.358-0.719-4.331-2.156c-0.971-1.438-1.457-3.56-1.457-6.367c0-2.928,0.472-5.087,1.418-6.476
			c0.945-1.389,2.402-2.083,4.37-2.083c1.913,0,3.361,0.727,4.34,2.179C404.997,92.527,405.487,94.653,405.487,97.454z
			 M397.372,97.454c0,2.035,0.176,3.493,0.528,4.374c0.352,0.881,0.943,1.322,1.776,1.322c0.817,0,1.407-0.445,1.77-1.339
			c0.363-0.892,0.545-2.344,0.545-4.357c0-2.036-0.184-3.498-0.551-4.387c-0.366-0.889-0.954-1.334-1.764-1.334
			c-0.825,0-1.415,0.445-1.772,1.334C397.55,93.956,397.372,95.418,397.372,97.454z"/>
		<path fill="#FFFFFF" d="M418.777,96.238c0,3.269-0.688,5.71-2.066,7.321c-1.376,1.611-3.461,2.418-6.253,2.418
			c-0.984,0-1.729-0.053-2.235-0.159v-2.814c0.635,0.159,1.301,0.238,1.997,0.238c1.172,0,2.137-0.173,2.894-0.517
			c0.757-0.344,1.336-0.886,1.737-1.624c0.4-0.736,0.63-1.753,0.691-3.046h-0.135c-0.439,0.711-0.946,1.211-1.521,1.498
			c-0.576,0.288-1.294,0.431-2.156,0.431c-1.446,0-2.584-0.462-3.417-1.39c-0.833-0.926-1.248-2.215-1.248-3.864
			c0-1.778,0.506-3.183,1.515-4.217c1.01-1.032,2.386-1.549,4.127-1.549c1.225,0,2.298,0.288,3.218,0.862
			c0.918,0.576,1.624,1.41,2.116,2.503S418.777,94.725,418.777,96.238z M412.772,91.778c-0.725,0-1.294,0.251-1.701,0.749
			c-0.409,0.5-0.613,1.219-0.613,2.158c0,0.802,0.185,1.437,0.556,1.905c0.371,0.47,0.936,0.704,1.692,0.704
			c0.71,0,1.32-0.232,1.826-0.697c0.507-0.465,0.761-1.001,0.761-1.607c0-0.9-0.237-1.659-0.71-2.281
			C414.11,92.09,413.507,91.778,412.772,91.778z"/>
		<path fill="#FFFFFF" d="M432.021,97.454c0,2.897-0.476,5.042-1.424,6.434c-0.95,1.393-2.413,2.089-4.387,2.089
			c-1.915,0-3.358-0.719-4.331-2.156c-0.971-1.438-1.457-3.56-1.457-6.367c0-2.928,0.472-5.087,1.418-6.476
			c0.945-1.389,2.402-2.083,4.37-2.083c1.913,0,3.361,0.727,4.34,2.179C431.531,92.527,432.021,94.653,432.021,97.454z
			 M423.906,97.454c0,2.035,0.176,3.493,0.528,4.374c0.352,0.881,0.943,1.322,1.776,1.322c0.817,0,1.407-0.445,1.77-1.339
			c0.363-0.892,0.545-2.344,0.545-4.357c0-2.036-0.184-3.498-0.551-4.387c-0.366-0.889-0.954-1.334-1.764-1.334
			c-0.825,0-1.415,0.445-1.772,1.334C424.083,93.956,423.906,95.418,423.906,97.454z"/>
		<path fill="#FFFFFF" d="M445.31,96.238c0,3.269-0.688,5.71-2.066,7.321c-1.376,1.611-3.461,2.418-6.253,2.418
			c-0.984,0-1.729-0.053-2.235-0.159v-2.814c0.635,0.159,1.301,0.238,1.997,0.238c1.172,0,2.137-0.173,2.894-0.517
			c0.757-0.344,1.336-0.886,1.737-1.624c0.4-0.736,0.63-1.753,0.691-3.046h-0.135c-0.439,0.711-0.946,1.211-1.521,1.498
			c-0.576,0.288-1.294,0.431-2.156,0.431c-1.446,0-2.584-0.462-3.417-1.39c-0.833-0.926-1.248-2.215-1.248-3.864
			c0-1.778,0.506-3.183,1.515-4.217c1.01-1.032,2.386-1.549,4.127-1.549c1.225,0,2.298,0.288,3.218,0.862
			c0.918,0.576,1.624,1.41,2.116,2.503S445.31,94.725,445.31,96.238z M439.306,91.778c-0.725,0-1.294,0.251-1.701,0.749
			c-0.409,0.5-0.613,1.219-0.613,2.158c0,0.802,0.185,1.437,0.556,1.905c0.371,0.47,0.936,0.704,1.692,0.704
			c0.71,0,1.32-0.232,1.826-0.697c0.507-0.465,0.761-1.001,0.761-1.607c0-0.9-0.237-1.659-0.71-2.281
			C440.643,92.09,440.041,91.778,439.306,91.778z"/>
		<path fill="#FFFFFF" d="M464.036,92.868c0,1.037-0.313,1.918-0.942,2.645c-0.627,0.725-1.51,1.225-2.645,1.498v0.068
			c1.34,0.167,2.354,0.573,3.042,1.22c0.69,0.646,1.034,1.519,1.034,2.615c0,1.597-0.579,2.839-1.737,3.728
			c-1.157,0.889-2.81,1.334-4.96,1.334c-1.801,0-3.397-0.299-4.788-0.897v-2.986c0.643,0.325,1.35,0.592,2.122,0.795
			s1.536,0.307,2.293,0.307c1.157,0,2.013-0.198,2.564-0.59c0.553-0.394,0.83-1.026,0.83-1.896c0-0.78-0.319-1.331-0.954-1.656
			s-1.649-0.489-3.042-0.489h-1.259v-2.69h1.283c1.286,0,2.226-0.168,2.821-0.504c0.593-0.336,0.89-0.914,0.89-1.731
			c0-1.256-0.788-1.884-2.362-1.884c-0.543,0-1.099,0.09-1.663,0.272c-0.564,0.181-1.189,0.495-1.877,0.942l-1.624-2.418
			c1.513-1.09,3.319-1.635,5.414-1.635c1.717,0,3.073,0.349,4.069,1.045C463.539,90.659,464.036,91.627,464.036,92.868z"/>
		<path fill="#FFFFFF" d="M472.072,88.942c1.589,0,2.871,0.361,3.842,1.083c0.973,0.722,1.459,1.697,1.459,2.922
			c0,0.848-0.235,1.602-0.704,2.265c-0.469,0.662-1.225,1.253-2.27,1.776c1.241,0.665,2.131,1.359,2.673,2.081
			c0.54,0.724,0.811,1.516,0.811,2.379c0,1.362-0.534,2.456-1.6,3.285c-1.066,0.83-2.47,1.244-4.211,1.244
			c-1.815,0-3.241-0.386-4.278-1.158c-1.037-0.772-1.555-1.865-1.555-3.28c0-0.945,0.251-1.786,0.755-2.519
			c0.503-0.735,1.311-1.381,2.422-1.941c-0.945-0.598-1.627-1.238-2.042-1.918c-0.416-0.682-0.624-1.426-0.624-2.235
			c0-1.188,0.492-2.15,1.476-2.883C469.209,89.308,470.49,88.942,472.072,88.942z M469.484,101.335c0,0.651,0.227,1.158,0.68,1.521
			c0.455,0.363,1.076,0.545,1.862,0.545c0.87,0,1.521-0.187,1.952-0.562c0.431-0.375,0.648-0.869,0.648-1.48
			c0-0.507-0.215-0.982-0.641-1.424c-0.428-0.444-1.122-0.914-2.083-1.413C470.291,99.261,469.484,100.2,469.484,101.335z
			 M472.05,91.506c-0.598,0-1.08,0.154-1.448,0.461c-0.367,0.305-0.55,0.716-0.55,1.231c0,0.453,0.145,0.861,0.436,1.219
			c0.291,0.36,0.819,0.729,1.583,1.107c0.743-0.347,1.261-0.704,1.555-1.066c0.296-0.363,0.442-0.783,0.442-1.259
			c0-0.523-0.188-0.936-0.567-1.238C473.124,91.658,472.64,91.506,472.05,91.506z"/>
		<path fill="#FFFFFF" d="M497.629,102.311h-1.997v3.439h-3.426v-3.439h-7.083V99.87l7.274-10.713h3.235v10.43h1.997V102.311z
			 M492.206,99.587v-2.814c0-0.469,0.019-1.15,0.056-2.042c0.037-0.894,0.069-1.412,0.09-1.555h-0.09
			c-0.28,0.621-0.616,1.225-1.01,1.815l-3.042,4.597H492.206z"/>
		<path fill="#FFFFFF" d="M504.644,88.942c1.589,0,2.871,0.361,3.842,1.083c0.973,0.722,1.459,1.697,1.459,2.922
			c0,0.848-0.235,1.602-0.704,2.265c-0.469,0.662-1.225,1.253-2.27,1.776c1.241,0.665,2.131,1.359,2.673,2.081
			c0.54,0.724,0.811,1.516,0.811,2.379c0,1.362-0.534,2.456-1.6,3.285c-1.066,0.83-2.47,1.244-4.211,1.244
			c-1.815,0-3.241-0.386-4.278-1.158c-1.037-0.772-1.555-1.865-1.555-3.28c0-0.945,0.251-1.786,0.755-2.519
			c0.503-0.735,1.311-1.381,2.422-1.941c-0.945-0.598-1.627-1.238-2.042-1.918c-0.416-0.682-0.624-1.426-0.624-2.235
			c0-1.188,0.492-2.15,1.476-2.883C501.781,89.308,503.062,88.942,504.644,88.942z M502.056,101.335c0,0.651,0.227,1.158,0.68,1.521
			c0.455,0.363,1.076,0.545,1.862,0.545c0.87,0,1.521-0.187,1.952-0.562c0.431-0.375,0.648-0.869,0.648-1.48
			c0-0.507-0.215-0.982-0.641-1.424c-0.428-0.444-1.122-0.914-2.083-1.413C502.863,99.261,502.056,100.2,502.056,101.335z
			 M504.622,91.506c-0.598,0-1.08,0.154-1.448,0.461c-0.367,0.305-0.55,0.716-0.55,1.231c0,0.453,0.145,0.861,0.436,1.219
			c0.291,0.36,0.819,0.729,1.583,1.107c0.743-0.347,1.261-0.704,1.555-1.066c0.296-0.363,0.442-0.783,0.442-1.259
			c0-0.523-0.188-0.936-0.567-1.238C505.696,91.658,505.212,91.506,504.622,91.506z"/>
		<path fill="#FFFFFF" d="M529.739,97.454c0,2.897-0.476,5.042-1.424,6.434c-0.95,1.393-2.413,2.089-4.387,2.089
			c-1.915,0-3.358-0.719-4.331-2.156c-0.971-1.438-1.457-3.56-1.457-6.367c0-2.928,0.472-5.087,1.418-6.476
			c0.945-1.389,2.402-2.083,4.37-2.083c1.913,0,3.361,0.727,4.34,2.179C529.249,92.527,529.739,94.653,529.739,97.454z
			 M521.624,97.454c0,2.035,0.176,3.493,0.528,4.374c0.352,0.881,0.943,1.322,1.776,1.322c0.817,0,1.407-0.445,1.77-1.339
			c0.363-0.892,0.545-2.344,0.545-4.357c0-2.036-0.184-3.498-0.551-4.387c-0.366-0.889-0.954-1.334-1.764-1.334
			c-0.825,0-1.415,0.445-1.771,1.334C521.802,93.956,521.624,95.418,521.624,97.454z"/>
		<path fill="#FFFFFF" d="M543.027,96.238c0,3.269-0.688,5.71-2.066,7.321c-1.376,1.611-3.461,2.418-6.253,2.418
			c-0.984,0-1.729-0.053-2.235-0.159v-2.814c0.635,0.159,1.301,0.238,1.997,0.238c1.172,0,2.137-0.173,2.894-0.517
			c0.757-0.344,1.336-0.886,1.737-1.624c0.4-0.736,0.63-1.753,0.691-3.046h-0.135c-0.439,0.711-0.946,1.211-1.521,1.498
			c-0.576,0.288-1.294,0.431-2.156,0.431c-1.446,0-2.584-0.462-3.417-1.39c-0.833-0.926-1.248-2.215-1.248-3.864
			c0-1.778,0.506-3.183,1.515-4.217c1.01-1.032,2.386-1.549,4.127-1.549c1.225,0,2.298,0.288,3.218,0.862
			c0.918,0.576,1.624,1.41,2.116,2.503C542.781,93.422,543.027,94.725,543.027,96.238z M537.023,91.778
			c-0.725,0-1.294,0.251-1.701,0.749c-0.409,0.5-0.613,1.219-0.613,2.158c0,0.802,0.185,1.437,0.556,1.905
			c0.371,0.47,0.936,0.704,1.692,0.704c0.71,0,1.32-0.232,1.826-0.697c0.508-0.465,0.761-1.001,0.761-1.607
			c0-0.9-0.237-1.659-0.71-2.281C538.36,92.09,537.758,91.778,537.023,91.778z"/>
	</g>
</g>
</svg>
